# xmcd
#
# Track frame offsets:
#	150
#	18337
#	38260
#	55224
#	76435
#	87645
#	102682
#	120505
#	134562
#	147063
#
# Disc length: 2125 seconds
#
# Revision: 1
# Processed by: cddbd v1.5.1PL2 Copyright (c) Steve Scherf et al.
# Submitted via: audiograbber 1.83.01
#
DISCID=82084b0a
DTITLE=Various Artist - XIT: Ten in Texas
DYEAR=2005
DGENRE=Country
TTITLE0=Ruthie Foster - Texas Cookin'
TTITLE1=Carolyn Wonderland - Honky Tonk Heroes
TTITLE2=Aaron Watson - True Love Ways
TTITLE3=Joe Ely - Sunday Morning Coming Down
TTITLE4=Gary P. Nunn - Lone Star Beer and Bob Wills Music
TTITLE5=Asleep at the Wheel - The Other Woman
TTITLE6=Terri Hendrix - Cowboy
TTITLE7=Dale Watson - The Grand Tour
TTITLE8=Johnny Bush/Cornell Hurd - There's a Little Bit of Everything in Texas
TTITLE9=Willie Nelson - Mamas Don't Let Your Babies Grow Up to be Cowboys
EXTD=
EXTT0=
EXTT1=
EXTT2=
EXTT3=
EXTT4=
EXTT5=
EXTT6=
EXTT7=
EXTT8=
EXTT9=
PLAYORDER=
